<svg width="494" height="127" viewBox="0 0 494 127" fill="none" xmlns="http://www.w3.org/2000/svg">
<g filter="url(#filter0_i)">
<path d="M30.4688 92.7812L29.3438 94.8906C24.9844 102.766 22.8047 109.352 22.8047 114.648C22.8047 115.727 22.9922 117.062 23.3672 118.656C21.2578 119.312 19.1953 119.641 17.1797 119.641C13.7578 119.641 12.0469 118.234 12.0469 115.422C12.0469 113.922 12.9844 110.664 14.8594 105.648C16.7344 100.586 18.4219 96.8828 19.9219 94.5391L20.9766 92.7812H18.7969C11.7656 92.7812 5.53125 94.3281 0.09375 97.4219C1.26562 91.9375 2.97656 88.3281 5.22656 86.5938C7.47656 84.8594 11.5078 83.9922 17.3203 83.9922L22.7344 84.0625H24.9141L35.8828 60.6484H33.8438C23.9531 60.6484 16.3594 62.0547 11.0625 64.8672C11.5781 63.3672 11.9766 62.2422 12.2578 61.4922C13.6641 57.6016 15.4922 55.1172 17.7422 54.0391C19.9922 52.9609 24.375 52.4219 30.8906 52.4219H40.1016L40.5938 51.2266C45.7031 39.0391 48.2578 30.0625 48.2578 24.2969C48.2578 22.375 48.0234 20.3125 47.5547 18.1094C49.2422 17.5469 51.1641 17.2656 53.3203 17.2656C56.9297 17.2656 58.7344 19.5391 58.7344 24.0859C58.7344 29.2891 56.0859 37.8203 50.7891 49.6797L49.5938 52.4219H67.1016L68.5078 49.6797C68.7891 49.1172 69.5391 47.3594 70.7578 44.4062C73.7578 37.2812 76.5703 32.5703 79.1953 30.2734C81.8672 27.9766 85.7812 26.8281 90.9375 26.8281C91.9688 26.8281 93.0703 26.9688 94.2422 27.25C89.6953 30.6719 84.0938 39.0625 77.4375 52.4219H79.0547C84.7266 52.4219 89.9766 51.3438 94.8047 49.1875C94.2422 53.5469 92.5547 56.5469 89.7422 58.1875C86.9766 59.8281 82.1719 60.6484 75.3281 60.6484H73.4297L68.3672 72.0391C67.9922 72.8828 66.2812 76.8906 63.2344 84.0625H65.2031C73.7344 84.0625 80.4141 81.9531 85.2422 77.7344C84.9141 83.0781 82.9453 86.9219 79.3359 89.2656C75.7734 91.6094 70.0312 92.7812 62.1094 92.7812H59.6484C56.7422 102.062 55.2891 110.102 55.2891 116.898C55.2891 119.43 55.7344 121.703 56.625 123.719C53.7656 125.641 51.3281 126.602 49.3125 126.602C45.8438 126.602 44.1094 123.602 44.1094 117.602C44.1094 112.117 46.1719 103.844 50.2969 92.7812H30.4688ZM34.5469 84.0625H53.5312C54.6562 81.2969 56.4844 77.1016 59.0156 71.4766C59.5312 70.3516 61.0547 66.7422 63.5859 60.6484H45.5156L34.5469 84.0625Z" fill="#79AD52"/>
<path d="M157.102 96.1562C158.367 98.4531 159 100.469 159 102.203C159 106.797 155.109 111.883 147.328 117.461C139.594 122.992 132.539 125.758 126.164 125.758C120.539 125.758 115.945 123.25 112.383 118.234C108.867 113.219 107.109 106.75 107.109 98.8281C107.109 90.0156 109.43 77.4766 114.07 61.2109L117.305 49.3984H105.422C100.453 49.3984 96.4922 50.1016 93.5391 51.5078C96.2578 46.5391 98.5078 43.4219 100.289 42.1562C102.07 40.8906 105.094 40.2578 109.359 40.2578H119.977L121.383 35.4062C123.539 28.1875 126.117 23.2422 129.117 20.5703C132.117 17.8516 136.617 16.4922 142.617 16.4922C143.32 16.4922 144.445 16.5391 145.992 16.6328C142.336 21.3203 138.539 29.1953 134.602 40.2578H171.727C178.242 40.2578 183.211 39.4141 186.633 37.7266C185.461 42.5547 183.891 45.7188 181.922 47.2188C180 48.6719 176.391 49.3984 171.094 49.3984H131.578C131.109 50.9453 130.758 52.0938 130.523 52.8438C124.852 72.1562 122.016 86.7344 122.016 96.5781C122.016 107.453 125.93 112.891 133.758 112.891C137.789 112.891 142.172 111.18 146.906 107.758C151.688 104.336 155.086 100.469 157.102 96.1562Z" fill="#79AD52"/>
<path d="M242.461 72.1797C242.602 73.3047 242.672 74.3125 242.672 75.2031C242.672 88.75 238.078 100.562 228.891 110.641C219.703 120.719 208.945 125.758 196.617 125.758C187.195 125.758 179.508 122.758 173.555 116.758C167.648 110.711 164.695 102.883 164.695 93.2734C164.695 82.3516 168.516 72.8828 176.156 64.8672C183.844 56.8516 192.891 52.8438 203.297 52.8438C204.891 52.8438 206.578 53.0547 208.359 53.4766C207.188 51.3672 206.602 49.5859 206.602 48.1328C206.602 45.8828 207.375 43.7266 208.922 41.6641C220.359 42.6016 229.875 48.4609 237.469 59.2422C245.25 64.5391 253.359 67.1875 261.797 67.1875C267.281 67.1875 273.211 65.3359 279.586 61.6328L283.102 67.6094C275.648 72.8125 268.008 75.4141 260.18 75.4141C254.977 75.4141 249.07 74.3359 242.461 72.1797ZM226.5 66.2031C222.609 65.0312 219.023 63.1562 215.742 60.5781C213.352 60.0625 211.359 59.8047 209.766 59.8047C201.797 59.8047 194.719 63.3906 188.531 70.5625C182.391 77.7344 179.32 85.9141 179.32 95.1016C179.32 101.758 181.172 107.242 184.875 111.555C188.625 115.82 193.43 117.953 199.289 117.953C207.211 117.953 214.031 113.969 219.75 106C225.469 97.9844 228.328 88.4453 228.328 77.3828C228.328 73.5391 227.719 69.8125 226.5 66.2031Z" fill="#79AD52"/>
<path d="M323.18 82.8672C315.867 96.0391 308.203 106.492 300.188 114.227C292.219 121.914 285.094 125.758 278.812 125.758C273.797 125.758 269.812 123.578 266.859 119.219C263.906 114.812 262.43 108.93 262.43 101.57C262.43 86.7578 266.836 73.7969 275.648 62.6875C284.461 51.5312 294.703 45.9531 306.375 45.9531C313.359 45.9531 320.977 48.1797 329.227 52.6328L336.75 14.7344C332.625 15.5781 329.203 16 326.484 16C322.359 16 319.336 15.0391 317.414 13.1172C315.492 11.1484 313.945 7.49219 312.773 2.14844C316.148 4.44531 321.328 5.59375 328.312 5.59375C336.984 5.59375 345.352 4 353.414 0.8125L338.086 77.875C336.352 86.5 335.484 93.8359 335.484 99.8828C335.484 107.945 337.781 111.977 342.375 111.977C346.875 111.977 354.352 106.703 364.805 96.1562C375.305 85.6094 384.047 74.5703 391.031 63.0391L396.797 66.6953C388.453 81.9766 378.023 95.6406 365.508 107.688C353.039 119.734 343.078 125.758 335.625 125.758C326.156 125.758 321.422 118.164 321.422 102.977C321.422 96.6953 322.008 89.9922 323.18 82.8672ZM326.906 64.2344C317.156 57.8125 309.047 54.6016 302.578 54.6016C295.547 54.6016 289.453 58.9141 284.297 67.5391C279.188 76.1641 276.633 86.3594 276.633 98.125C276.633 107.594 279.727 112.328 285.914 112.328C292.57 112.328 305.367 97.6094 324.305 68.1719C324.633 67.6562 325.5 66.3438 326.906 64.2344Z" fill="#79AD52"/>
<path d="M452.695 72.1797C452.836 73.3047 452.906 74.3125 452.906 75.2031C452.906 88.75 448.312 100.562 439.125 110.641C429.938 120.719 419.18 125.758 406.852 125.758C397.43 125.758 389.742 122.758 383.789 116.758C377.883 110.711 374.93 102.883 374.93 93.2734C374.93 82.3516 378.75 72.8828 386.391 64.8672C394.078 56.8516 403.125 52.8438 413.531 52.8438C415.125 52.8438 416.812 53.0547 418.594 53.4766C417.422 51.3672 416.836 49.5859 416.836 48.1328C416.836 45.8828 417.609 43.7266 419.156 41.6641C430.594 42.6016 440.109 48.4609 447.703 59.2422C455.484 64.5391 463.594 67.1875 472.031 67.1875C477.516 67.1875 483.445 65.3359 489.82 61.6328L493.336 67.6094C485.883 72.8125 478.242 75.4141 470.414 75.4141C465.211 75.4141 459.305 74.3359 452.695 72.1797ZM436.734 66.2031C432.844 65.0312 429.258 63.1562 425.977 60.5781C423.586 60.0625 421.594 59.8047 420 59.8047C412.031 59.8047 404.953 63.3906 398.766 70.5625C392.625 77.7344 389.555 85.9141 389.555 95.1016C389.555 101.758 391.406 107.242 395.109 111.555C398.859 115.82 403.664 117.953 409.523 117.953C417.445 117.953 424.266 113.969 429.984 106C435.703 97.9844 438.562 88.4453 438.562 77.3828C438.562 73.5391 437.953 69.8125 436.734 66.2031Z" fill="#79AD52"/>
</g>
<defs>
<filter id="filter0_i" x="0.09375" y="0.8125" width="493.242" height="126.789" filterUnits="userSpaceOnUse" color-interpolation-filters="sRGB">
<feFlood flood-opacity="0" result="BackgroundImageFix"/>
<feBlend mode="normal" in="SourceGraphic" in2="BackgroundImageFix" result="shape"/>
<feColorMatrix in="SourceAlpha" type="matrix" values="0 0 0 0 0 0 0 0 0 0 0 0 0 0 0 0 0 0 127 0" result="hardAlpha"/>
<feOffset dy="4"/>
<feGaussianBlur stdDeviation="0.5"/>
<feComposite in2="hardAlpha" operator="arithmetic" k2="-1" k3="1"/>
<feColorMatrix type="matrix" values="0 0 0 0 0 0 0 0 0 0 0 0 0 0 0 0 0 0 0.25 0"/>
<feBlend mode="normal" in2="shape" result="effect1_innerShadow"/>
</filter>
</defs>
</svg>
